<svg width="172" height="134" viewBox="0 0 172 134" fill="none" xmlns="http://www.w3.org/2000/svg">
<rect x="-0.53366" y="0.463904" width="162" height="121" rx="26.5" transform="matrix(-0.997564 -0.0697565 -0.0697565 0.997564 170.08 11.3342)" fill="white" fill-opacity="0.6" stroke="black"/>
<path d="M62.7074 21.5511L61.6532 21.4769C61.6127 21.1694 61.5228 20.8953 61.3835 20.6549C61.2471 20.4146 61.0739 20.2088 60.8641 20.0374C60.6574 19.8634 60.4237 19.7273 60.163 19.6293C59.9023 19.5312 59.6275 19.472 59.3384 19.4517C58.8113 19.4146 58.3242 19.5142 57.877 19.7505C57.4327 19.987 57.0658 20.3556 56.7761 20.8564C56.4893 21.3574 56.3187 21.9848 56.2644 22.7385C56.21 23.4922 56.2888 24.1371 56.5007 24.6732C56.7155 25.2095 57.0259 25.6257 57.4318 25.9219C57.8405 26.2184 58.3084 26.3851 58.8355 26.4222C59.1245 26.4425 59.4051 26.4224 59.6772 26.3618C59.9493 26.3011 60.2001 26.2006 60.4296 26.0601C60.6621 25.9169 60.8631 25.736 61.0327 25.5172C61.2053 25.2958 61.3337 25.0372 61.4177 24.7412L62.4719 24.8153C62.3604 25.2546 62.1872 25.6425 61.9521 25.9792C61.7171 26.3158 61.4348 26.5964 61.1053 26.821C60.776 27.0428 60.4126 27.2037 60.0151 27.304C59.6205 27.4044 59.2036 27.4391 58.7643 27.4083C58.0218 27.3561 57.3746 27.1283 56.8227 26.725C56.2707 26.3216 55.8531 25.7739 55.5698 25.0819C55.2864 24.3899 55.1779 23.5848 55.2442 22.6668C55.3104 21.7487 55.5334 20.967 55.9132 20.3216C56.2931 19.6762 56.7851 19.1924 57.3894 18.8704C57.9937 18.5483 58.6671 18.4134 59.4096 18.4656C59.8488 18.4965 60.2565 18.5892 60.6328 18.7438C61.0118 18.8986 61.3483 19.1102 61.6422 19.3787C61.9364 19.6443 62.1756 19.9601 62.36 20.3262C62.5446 20.6895 62.6604 21.0978 62.7074 21.5511ZM63.9792 27.6553L64.6072 18.9506L69.8613 19.32L69.7938 20.2551L65.594 19.9598L65.3818 22.901L69.3096 23.1772L69.2421 24.1122L65.3143 23.8361L65.1008 26.7943L69.3687 27.0944L69.3013 28.0294L63.9792 27.6553ZM71.2179 20.3552L71.2853 19.4201L77.8147 19.8791L77.7472 20.8142L75.0097 20.6217L74.4491 28.3913L73.3948 28.3172L73.9554 20.5476L71.2179 20.3552ZM82.1803 28.9349L82.8084 20.2302L88.0625 20.5996L87.995 21.5347L83.7951 21.2394L83.5829 24.1806L87.5107 24.4567L87.4433 25.3918L83.5155 25.1157L83.302 28.0739L87.5699 28.3739L87.5024 29.309L82.1803 28.9349ZM90.4727 20.769L92.4559 24.5481L92.5239 24.5529L95.0297 21.0894L96.2709 21.1767L93.2193 25.3365L95.6428 29.8813L94.4016 29.794L92.4135 26.083L92.3455 26.0782L89.8447 29.4737L88.6034 29.3864L91.723 25.2313L89.2315 20.6818L90.4727 20.769ZM97.3719 30.0029L96.2667 29.9252L100.091 21.4452L101.18 21.5218L103.748 30.4511L102.643 30.3734L100.57 22.863L100.502 22.8582L97.3719 30.0029ZM98.0253 26.6313L102.48 26.9445L102.413 27.8796L97.9578 27.5664L98.0253 26.6313ZM105.732 21.8418L106.991 21.9303L109.428 29.3638L109.53 29.371L113.01 22.3534L114.268 22.4419L113.64 31.1465L112.654 31.0772L113.131 24.4637L113.046 24.4578L109.848 30.88L108.896 30.813L106.653 24.0083L106.568 24.0023L106.09 30.6158L105.104 30.5465L105.732 21.8418Z" fill="black"/>
<line y1="-0.5" x2="125.302" y2="-0.5" transform="matrix(0.99681 0.0798074 -0.0577046 0.998334 25.2112 35.3703)" stroke="black" stroke-opacity="0.6"/>
<line y1="-0.5" x2="125.302" y2="-0.5" transform="matrix(0.99681 0.0798074 -0.0577046 0.998334 23.512 55.3703)" stroke="black" stroke-opacity="0.6"/>
<line y1="-0.5" x2="125.302" y2="-0.5" transform="matrix(0.99681 0.0798074 -0.0577046 0.998334 21.8125 75.3703)" stroke="black" stroke-opacity="0.6"/>
<line y1="-0.5" x2="125.302" y2="-0.5" transform="matrix(0.99681 0.0798074 -0.0577046 0.998334 20.1132 99.3703)" stroke="black" stroke-opacity="0.6"/>
</svg>
