<svg width="181" height="190" viewBox="0 0 181 190" fill="none" xmlns="http://www.w3.org/2000/svg">
<rect x="19.7728" y="38.7652" width="109" height="128" rx="9.5" transform="rotate(-12.0982 19.7728 38.7652)" fill="#EDEDED" stroke="#333333"/>
<path d="M47.7659 36.1835L137.747 34.3603C142.993 34.254 147.332 38.4203 147.438 43.6659L149.646 152.644C149.752 157.889 145.586 162.228 140.34 162.334L50.3589 164.157C45.1132 164.264 40.7746 160.097 40.6684 154.852L38.4603 45.874C38.354 40.6284 42.5203 36.2898 47.7659 36.1835Z" fill="#EDEDED" stroke="#333333"/>
<rect x="56.9299" y="39.5495" width="109" height="128" rx="9.5" transform="rotate(8.12017 56.9299 39.5495)" fill="#EDEDED" stroke="#333333"/>
<line x1="49.7717" y1="155.384" x2="141.577" y2="168.68" stroke="#333333" stroke-opacity="0.5"/>
<line x1="52.9302" y1="137.411" x2="144.736" y2="150.707" stroke="#333333" stroke-opacity="0.5"/>
<line x1="62.7347" y1="64.5219" x2="154.54" y2="77.8175" stroke="#333333" stroke-opacity="0.5"/>
<line x1="61.4624" y1="83.16" x2="153.268" y2="96.4556" stroke="#333333" stroke-opacity="0.5"/>
<line x1="58.304" y1="101.133" x2="150.109" y2="114.428" stroke="#333333" stroke-opacity="0.5"/>
<line x1="56.0886" y1="119.438" x2="147.894" y2="132.734" stroke="#333333" stroke-opacity="0.5"/>
</svg>
