<svg width="172" height="134" viewBox="0 0 172 134" fill="none" xmlns="http://www.w3.org/2000/svg">
<rect x="-0.53366" y="0.463904" width="162" height="121" rx="26.5" transform="matrix(-0.997564 -0.0697565 -0.0697565 0.997564 170.08 11.3342)" fill="white" fill-opacity="0.6" stroke="black"/>
<path d="M61.6532 19.4769C61.5803 19.1842 61.4756 18.9191 61.3389 18.6816C61.2052 18.4416 61.0394 18.2334 60.8413 18.0571C60.6461 17.8811 60.4198 17.7413 60.1624 17.6378C59.905 17.5342 59.619 17.4714 59.3044 17.4493C58.7886 17.413 58.31 17.5132 57.8685 17.7499C57.4271 17.9866 57.0629 18.3554 56.7761 18.8564C56.4893 19.3574 56.3187 19.9848 56.2644 20.7385C56.21 21.4922 56.2902 22.1372 56.505 22.6735C56.7198 23.2098 57.033 23.6262 57.4445 23.9228C57.856 24.2195 58.331 24.3867 58.8695 24.4246C59.3682 24.4596 59.8152 24.3843 60.2102 24.1984C60.6084 24.01 60.9278 23.7277 61.1686 23.3516C61.4124 22.9729 61.5535 22.5172 61.5919 21.9845L61.9101 22.0752L59.2915 21.8911L59.359 20.9561L62.6747 21.1892L62.6072 22.1242C62.5555 22.8411 62.3575 23.4537 62.0132 23.9621C61.6717 24.4706 61.2227 24.852 60.666 25.1062C60.1124 25.3578 59.4898 25.4593 58.7983 25.4106C58.0275 25.3565 57.3633 25.1275 56.8057 24.7238C56.2509 24.3202 55.8347 23.7726 55.557 23.081C55.2822 22.3896 55.1779 21.5848 55.2442 20.6668C55.2938 19.9782 55.4306 19.3656 55.6545 18.8288C55.8814 18.2894 56.1789 17.8376 56.5469 17.4733C56.915 17.109 57.3389 16.8398 57.8186 16.6656C58.2983 16.4914 58.8173 16.424 59.3756 16.4632C59.8346 16.4955 60.2576 16.595 60.6443 16.7617C61.0341 16.9258 61.3757 17.1449 61.6692 17.419C61.9658 17.6905 62.2064 18.0079 62.3909 18.3711C62.5757 18.7316 62.6925 19.1257 62.7414 19.5534L61.6532 19.4769ZM64.2544 25.6746L63.1492 25.5969L66.9739 17.117L68.0621 17.1935L70.6307 26.1229L69.5255 26.0452L67.4527 18.5347L67.3846 18.53L64.2544 25.6746ZM64.9078 22.3031L69.3627 22.6162L69.2953 23.5513L64.8404 23.2381L64.9078 22.3031ZM71.0542 18.3437L71.1217 17.4086L77.651 17.8676L77.5836 18.8027L74.846 18.6102L74.2854 26.3798L73.2312 26.3057L73.7918 18.5361L71.0542 18.3437ZM78.65 26.6867L79.278 17.982L84.5321 18.3514L84.4647 19.2865L80.2648 18.9912L80.0526 21.9324L83.9804 22.2086L83.9129 23.1436L79.9851 22.8675L79.7717 25.8257L84.0395 26.1257L83.9721 27.0608L78.65 26.6867ZM89.1709 27.4263L89.799 18.7217L95.053 19.091L94.9856 20.0261L90.7857 19.7308L90.5735 22.6721L94.5013 22.9482L94.4338 23.8833L90.506 23.6071L90.2926 26.5654L94.5605 26.8654L94.493 27.8005L89.1709 27.4263ZM97.4633 19.2605L99.4465 23.0395L99.5145 23.0443L102.02 19.5809L103.261 19.6681L100.21 23.828L102.633 28.3728L101.392 28.2855L99.4041 24.5744L99.3361 24.5697L96.8352 27.9651L95.594 27.8779L98.7136 23.7228L96.222 19.1732L97.4633 19.2605ZM104.362 28.4943L103.257 28.4166L107.082 19.9367L108.17 20.0132L110.739 28.9426L109.634 28.8649L107.561 21.3544L107.493 21.3497L104.362 28.4943ZM105.016 25.1228L109.471 25.4359L109.403 26.371L104.948 26.0578L105.016 25.1228ZM112.723 20.3333L113.981 20.4217L116.418 27.8553L116.52 27.8624L120 20.8449L121.259 20.9334L120.631 29.638L119.644 29.5687L120.122 22.9552L120.036 22.9492L116.839 29.3714L115.887 29.3045L113.643 22.4997L113.558 22.4938L113.081 29.1073L112.095 29.0379L112.723 20.3333Z" fill="black"/>
<line y1="-0.5" x2="125.302" y2="-0.5" transform="matrix(0.99681 0.0798074 -0.0577046 0.998334 25.2112 35.3703)" stroke="black" stroke-opacity="0.6"/>
<line y1="-0.5" x2="125.302" y2="-0.5" transform="matrix(0.99681 0.0798074 -0.0577046 0.998334 23.512 55.3703)" stroke="black" stroke-opacity="0.6"/>
<line y1="-0.5" x2="125.302" y2="-0.5" transform="matrix(0.99681 0.0798074 -0.0577046 0.998334 21.8125 75.3703)" stroke="black" stroke-opacity="0.6"/>
<line y1="-0.5" x2="125.302" y2="-0.5" transform="matrix(0.99681 0.0798074 -0.0577046 0.998334 20.1132 99.3703)" stroke="black" stroke-opacity="0.6"/>
</svg>
