<svg width="172" height="134" viewBox="0 0 172 134" fill="none" xmlns="http://www.w3.org/2000/svg">
<rect x="-0.53366" y="0.463904" width="162" height="121" rx="26.5" transform="matrix(-0.997564 -0.0697565 -0.0697565 0.997564 170.08 11.3342)" fill="white" fill-opacity="0.6" stroke="black"/>
<path d="M62.9938 17.2703L64.0481 17.3445L63.5991 23.5669C63.559 24.1223 63.423 24.5869 63.1909 24.9608C62.9589 25.3346 62.65 25.6091 62.2642 25.7842C61.8784 25.9592 61.4333 26.029 60.9289 25.9936C60.4528 25.9601 60.0354 25.8439 59.6766 25.645C59.318 25.4432 59.0441 25.1733 58.8549 24.8353C58.6657 24.4974 58.5871 24.106 58.6192 23.6611L59.6564 23.734C59.6386 23.9805 59.684 24.2002 59.7926 24.3929C59.9042 24.583 60.064 24.7367 60.272 24.8538C60.48 24.971 60.7215 25.0392 60.9964 25.0585C61.2996 25.0798 61.5621 25.0342 61.7838 24.9216C62.0056 24.8091 62.1806 24.6334 62.3089 24.3947C62.4403 24.1533 62.5189 23.8527 62.5449 23.4928L62.9938 17.2703ZM68.1244 26.5165C67.4953 26.4723 66.9626 26.2953 66.5264 25.9855C66.0932 25.6731 65.7714 25.2575 65.561 24.7386C65.3537 24.2171 65.2742 23.622 65.3224 22.9533C65.3707 22.2846 65.5351 21.7038 65.8156 21.2109C66.0991 20.7153 66.4709 20.3399 66.9308 20.0846C67.3937 19.8267 67.9199 19.7184 68.5094 19.7599C68.8494 19.7838 69.1812 19.8641 69.5046 20.0007C69.828 20.1374 70.1165 20.3428 70.3701 20.6169C70.624 20.8882 70.8167 21.2378 70.9481 21.6657C71.0796 22.0936 71.1234 22.6121 71.0794 23.2213L71.0488 23.6464L66.0157 23.2925L66.0783 22.4255L70.0911 22.7076C70.1177 22.3392 70.0677 22.0054 69.9412 21.706C69.8175 21.4068 69.6271 21.1641 69.37 20.978C69.1156 20.7921 68.8071 20.6864 68.4444 20.6609C68.0448 20.6328 67.6919 20.7077 67.3857 20.8855C67.0825 21.0607 66.8417 21.3001 66.6631 21.6037C66.4845 21.9072 66.3823 22.2389 66.3563 22.5988L66.3146 23.1769C66.279 23.6699 66.3339 24.0938 66.4792 24.4486C66.6275 24.8008 66.8483 25.0769 67.1415 25.2769C67.4348 25.4741 67.7842 25.587 68.1894 25.6155C68.453 25.634 68.6937 25.6139 68.9115 25.5552C69.1324 25.4938 69.3262 25.3935 69.4929 25.2543C69.6598 25.1122 69.794 24.9309 69.8954 24.7102L70.8449 25.0503C70.7192 25.3718 70.5269 25.6488 70.268 25.8812C70.0093 26.1108 69.6979 26.2826 69.3336 26.3965C68.9696 26.5076 68.5665 26.5476 68.1244 26.5165ZM75.0916 27.0063C74.4625 26.9621 73.9298 26.7851 73.4935 26.4754C73.0604 26.163 72.7386 25.7473 72.5282 25.2285C72.3209 24.707 72.2414 24.1118 72.2896 23.4431C72.3379 22.7744 72.5022 22.1936 72.7828 21.7007C73.0663 21.2052 73.438 20.8297 73.898 20.5744C74.3609 20.3165 74.8871 20.2082 75.4766 20.2497C75.8166 20.2736 76.1484 20.3539 76.4717 20.4905C76.7951 20.6272 77.0837 20.8326 77.3373 21.1067C77.5912 21.378 77.7838 21.7276 77.9153 22.1555C78.0468 22.5834 78.0906 23.1019 78.0466 23.7112L78.0159 24.1362L72.9829 23.7824L73.0455 22.9153L77.0583 23.1974C77.0849 22.829 77.0349 22.4952 76.9084 22.1958C76.7847 21.8966 76.5943 21.654 76.3371 21.4679C76.0828 21.2819 75.7743 21.1762 75.4115 21.1507C75.012 21.1226 74.6591 21.1975 74.3529 21.3753C74.0497 21.5505 73.8088 21.7899 73.6303 22.0935C73.4517 22.397 73.3495 22.7288 73.3235 23.0886L73.2818 23.6667C73.2462 24.1597 73.3011 24.5836 73.4464 24.9384C73.5947 25.2906 73.8155 25.5667 74.1086 25.7667C74.402 25.9639 74.7513 26.0768 75.1566 26.1053C75.4201 26.1238 75.6609 26.1037 75.8787 26.045C76.0996 25.9836 76.2934 25.8833 76.4601 25.7441C76.627 25.602 76.7612 25.4207 76.8625 25.2L77.8121 25.5401C77.6864 25.8616 77.4941 26.1386 77.2352 26.371C76.9765 26.6006 76.6651 26.7724 76.3008 26.8863C75.9367 26.9974 75.5337 27.0374 75.0916 27.0063ZM83.4618 18.7093L84.7201 18.7978L87.1573 26.2313L87.2593 26.2385L90.7393 19.2209L91.9975 19.3094L91.3695 28.014L90.3833 27.9447L90.8605 21.3312L90.7754 21.3252L87.5777 27.7475L86.6255 27.6805L84.3821 20.8758L84.2971 20.8698L83.8199 27.4833L82.8337 27.4139L83.4618 18.7093ZM95.2576 28.4412C94.8438 28.4121 94.4739 28.3077 94.1479 28.1282C93.8222 27.9458 93.5708 27.6989 93.3939 27.3874C93.2172 27.0731 93.1442 26.7034 93.1748 26.2784C93.2018 25.9044 93.2974 25.6064 93.4615 25.3844C93.6258 25.1596 93.8361 24.9892 94.0923 24.8734C94.3484 24.7575 94.6276 24.6775 94.9299 24.6332C95.2352 24.5864 95.5409 24.5537 95.847 24.5354C96.2474 24.5123 96.5718 24.4966 96.8202 24.4885C97.0716 24.4777 97.2564 24.4437 97.3744 24.3865C97.4953 24.3295 97.5616 24.2202 97.5733 24.0587L97.5757 24.0247C97.606 23.6053 97.5147 23.2714 97.3019 23.0229C97.092 22.7746 96.756 22.6342 96.2941 22.6018C95.8152 22.5681 95.4321 22.6465 95.1449 22.8371C94.8578 23.0276 94.6503 23.238 94.5226 23.4683L93.595 23.0613C93.7936 22.6766 94.0426 22.3837 94.3419 22.1826C94.6443 21.9788 94.9673 21.8449 95.3109 21.7808C95.6575 21.714 95.9952 21.6922 96.3239 21.7153C96.5336 21.73 96.7726 21.7725 97.041 21.8426C97.3124 21.9101 97.5701 22.0293 97.8142 22.2003C98.061 22.3714 98.2583 22.6174 98.4061 22.9382C98.5538 23.259 98.609 23.6787 98.5716 24.1972L98.2612 28.4985L97.258 28.428L97.3218 27.5439L97.2708 27.5404C97.1925 27.6772 97.0682 27.8209 96.8979 27.9712C96.7275 28.1216 96.5065 28.2442 96.2348 28.339C95.963 28.4338 95.6373 28.4679 95.2576 28.4412ZM95.4756 27.5508C95.8723 27.5787 96.2124 27.5243 96.4957 27.3876C96.7818 27.2511 97.0032 27.0645 97.1598 26.8277C97.3193 26.5911 97.4089 26.3368 97.4285 26.0648L97.4947 25.1468C97.4486 25.1948 97.3517 25.235 97.2041 25.2673C97.0595 25.297 96.8926 25.3209 96.7033 25.3389C96.5171 25.3543 96.3353 25.3671 96.1579 25.3774C95.9836 25.3851 95.8421 25.3923 95.7334 25.3989C95.4702 25.4145 95.2225 25.4527 94.9903 25.5132C94.7611 25.5712 94.5717 25.6703 94.422 25.8107C94.2753 25.9485 94.1928 26.1449 94.1744 26.3999C94.1492 26.7485 94.2592 27.0211 94.5042 27.2177C94.7522 27.4117 95.076 27.5228 95.4756 27.5508ZM100.092 28.6273L100.563 22.0988L101.567 22.1693L101.095 28.6978L100.092 28.6273ZM101.152 21.0466C100.956 21.0328 100.793 20.9544 100.66 20.8112C100.531 20.6683 100.473 20.5033 100.487 20.3163C100.5 20.1293 100.581 19.9741 100.73 19.8507C100.881 19.7274 101.055 19.6727 101.25 19.6865C101.446 19.7002 101.608 19.7785 101.737 19.9215C101.869 20.0646 101.929 20.2297 101.915 20.4167C101.902 20.6037 101.819 20.7588 101.668 20.8821C101.519 21.0055 101.347 21.0603 101.152 21.0466ZM104.219 24.9702L103.936 28.8975L102.933 28.827L103.404 22.2985L104.373 22.3666L104.3 23.3867L104.385 23.3927C104.562 23.0719 104.813 22.8219 105.139 22.6426C105.466 22.4605 105.876 22.3868 106.369 22.4215C106.811 22.4526 107.191 22.5704 107.51 22.7751C107.828 22.9769 108.067 23.2671 108.224 23.6455C108.382 24.0212 108.441 24.4867 108.401 25.0421L108.102 29.1904L107.099 29.1198L107.393 25.0395C107.43 24.5267 107.326 24.1178 107.08 23.8129C106.835 23.5051 106.479 23.3349 106.015 23.3022C105.694 23.2797 105.403 23.329 105.141 23.4501C104.882 23.5714 104.67 23.7602 104.506 24.0164C104.342 24.2726 104.247 24.5905 104.219 24.9702ZM114.926 24.578L114.006 24.7697C113.96 24.6155 113.887 24.4637 113.787 24.3143C113.69 24.1622 113.551 24.0328 113.371 23.9262C113.19 23.8195 112.954 23.7559 112.662 23.7354C112.263 23.7073 111.923 23.776 111.643 23.9414C111.367 24.1042 111.218 24.3259 111.198 24.6064C111.18 24.8558 111.257 25.0591 111.427 25.2164C111.598 25.3736 111.873 25.514 112.252 25.6374L113.204 25.9436C113.777 26.1263 114.197 26.3736 114.462 26.6856C114.727 26.9947 114.843 27.3774 114.81 27.8336C114.783 28.2076 114.652 28.5344 114.415 28.814C114.181 29.0937 113.867 29.3052 113.472 29.4483C113.077 29.5914 112.626 29.6451 112.119 29.6095C111.453 29.5626 110.912 29.3794 110.496 29.0597C110.081 28.74 109.835 28.2983 109.759 27.7348L110.728 27.5637C110.794 27.9215 110.946 28.197 111.186 28.3904C111.428 28.5841 111.755 28.6953 112.166 28.7242C112.633 28.7571 113.012 28.684 113.301 28.505C113.593 28.3233 113.749 28.0922 113.769 27.8117C113.786 27.585 113.72 27.3896 113.573 27.2254C113.425 27.0584 113.19 26.9251 112.867 26.8255L111.797 26.494C111.209 26.3103 110.786 26.0598 110.526 25.7425C110.27 25.4227 110.159 25.0374 110.191 24.5869C110.218 24.2186 110.345 23.9 110.572 23.6312C110.802 23.3625 111.103 23.1601 111.475 23.0239C111.849 22.8879 112.266 22.8361 112.725 22.8683C113.371 22.9138 113.868 23.0911 114.216 23.4003C114.567 23.7098 114.803 24.1024 114.926 24.578Z" fill="black"/>
<line y1="-0.5" x2="125.302" y2="-0.5" transform="matrix(0.99681 0.0798074 -0.0577046 0.998334 25.2112 35.3703)" stroke="black" stroke-opacity="0.6"/>
<line y1="-0.5" x2="125.302" y2="-0.5" transform="matrix(0.99681 0.0798074 -0.0577046 0.998334 23.512 55.3703)" stroke="black" stroke-opacity="0.6"/>
<line y1="-0.5" x2="125.302" y2="-0.5" transform="matrix(0.99681 0.0798074 -0.0577046 0.998334 21.8125 75.3703)" stroke="black" stroke-opacity="0.6"/>
<line y1="-0.5" x2="125.302" y2="-0.5" transform="matrix(0.99681 0.0798074 -0.0577046 0.998334 20.1132 99.3703)" stroke="black" stroke-opacity="0.6"/>
</svg>
